<svg width="150" height="43" viewBox="0 0 150 43" fill="none" xmlns="http://www.w3.org/2000/svg">
<path d="M16.95 1.49992C17.25 1.49992 17.4 1.64992 17.7 1.79992C15.9 2.54992 14.1 4.49992 13.2 8.69992L9.9 9.59992C10.95 6.59992 13.05 1.49992 16.95 1.49992ZM18.6 2.99992C18.9 3.89992 19.2 4.94992 19.2 6.59992C19.2 6.74992 19.2 6.74992 19.2 6.89992L14.85 8.09992C15.75 4.94992 17.25 3.59992 18.6 2.99992ZM22.5 5.69992L20.55 6.29992C20.55 6.14992 20.55 5.99992 20.55 5.84992C20.55 4.49992 20.4 3.44992 20.1 2.54992C21.15 2.84992 22.05 4.19992 22.5 5.69992ZM32.25 8.09992C32.25 7.94992 32.1 7.79992 31.95 7.79992C31.65 7.79992 28.5 7.49992 28.5 7.49992C28.5 7.49992 26.25 5.24992 25.95 5.09992C25.65 4.79992 25.2 4.94992 25.05 4.94992C25.05 4.94992 24.6 5.09992 23.85 5.39992C23.1 3.29992 21.75 1.34992 19.5 1.34992H19.35C18.75 0.44992 17.85 0.14992 17.1 0.14992C11.7 -8.01682e-05 9.15 6.74992 8.25 10.1999C7.05 10.4999 5.85 10.9499 4.5 11.3999C3.3 11.6999 3.3 11.8499 3.15 12.8999C3 13.6499 0 37.3499 0 37.3499L23.85 41.8499L36.75 38.9999C36.75 38.9999 32.25 8.39992 32.25 8.09992Z" fill="#8DB849"/>
<path d="M31.8 7.79971C31.65 7.79971 28.5 7.49971 28.5 7.49971C28.5 7.49971 26.25 5.24971 25.95 5.09971C25.8 4.94971 25.8 4.94971 25.65 4.94971L23.85 41.8497L36.75 38.9997C36.75 38.9997 32.25 8.39971 32.25 8.09971C32.25 7.94971 31.95 7.79971 31.8 7.79971Z" fill="#5A863E"/>
<path d="M19.5 14.9997L17.85 19.7997C17.85 19.7997 16.5 19.0497 14.7 19.0497C12.15 19.0497 12 20.5497 12 20.9997C12 23.0997 17.7 23.9997 17.7 29.0997C17.7 33.1497 15.15 35.6997 11.7 35.6997C7.64999 35.6997 5.54999 33.1497 5.54999 33.1497L6.59999 29.5497C6.59999 29.5497 8.69999 31.3497 10.5 31.3497C11.7 31.3497 12.15 30.4497 12.15 29.6997C12.15 26.8497 7.49999 26.6997 7.49999 22.0497C7.49999 18.1497 10.35 14.3997 15.9 14.3997C18.45 14.2497 19.5 14.9997 19.5 14.9997Z" fill="#FFFFFE"/>
<path d="M51.9 23.85C50.55 23.1 49.95 22.5 49.95 21.75C49.95 20.7 50.85 20.1 52.35 20.1C54 20.1 55.5 20.85 55.5 20.85L56.7 17.25C56.7 17.25 55.65 16.35 52.5 16.35C48 16.35 45 18.9 45 22.5C45 24.6 46.5 26.1 48.3 27.15C49.8 28.05 50.4 28.65 50.4 29.55C50.4 30.45 49.65 31.35 48.15 31.35C46.05 31.35 43.95 30.3 43.95 30.3L42.75 33.9C42.75 33.9 44.55 35.1 47.7 35.1C52.2 35.1 55.5 32.85 55.5 28.8C55.5 26.55 53.85 24.9 51.9 23.85ZM70.05 16.2C67.8 16.2 66 17.25 64.65 18.9L66.6 8.7H61.5L56.55 34.65H61.65L63.3 25.8C63.9 22.5 65.7 20.4 67.35 20.4C68.55 20.4 69 21.15 69 22.35C69 23.1 69 23.85 68.85 24.6L66.9 34.8H72L73.95 24.3C74.1 23.25 74.25 21.9 74.25 21C74.25 18 72.75 16.2 70.05 16.2ZM83.1 31.05C81.3 31.05 80.7 29.55 80.7 27.75C80.7 24.9 82.2 20.1 84.9 20.1C86.7 20.1 87.3 21.6 87.3 23.1C87.3 26.4 85.8 31.05 83.1 31.05ZM85.65 16.2C79.5 16.2 75.45 21.75 75.45 27.9C75.45 31.8 77.85 34.95 82.5 34.95C88.5 34.95 92.55 29.55 92.55 23.25C92.55 19.65 90.45 16.2 85.65 16.2ZM100.65 31.2C99.3 31.2 98.55 30.45 98.55 30.45L99.45 25.65C100.05 22.5 101.7 20.4 103.5 20.4C105 20.4 105.6 21.9 105.6 23.25C105.45 26.55 103.5 31.2 100.65 31.2ZM105.6 16.2C102.15 16.2 100.2 19.2 100.2 19.2L100.5 16.5H96C95.85 18.3 95.4 21.15 94.95 23.25L91.35 41.85H96.45L97.8 34.35H97.95C97.95 34.35 99 34.95 100.95 34.95C106.95 34.95 110.85 28.8 110.85 22.65C110.85 19.35 109.35 16.2 105.6 16.2ZM118.05 9C116.4 9 115.2 10.35 115.2 12C115.2 13.5 116.1 14.55 117.6 14.55C119.25 14.55 120.6 13.5 120.6 11.55C120.6 10.05 119.55 9 118.05 9ZM111 34.65H116.1L119.55 16.65H114.45L111 34.65ZM132.45 16.65H128.85L129 15.75C129.3 13.95 130.35 12.45 132 12.45C132.9 12.45 133.65 12.75 133.65 12.75L134.7 8.7C134.7 8.7 133.8 8.25 132 8.25C130.2 8.25 128.4 8.7 127.05 9.9C125.25 11.4 124.5 13.5 124.05 15.6L123.9 16.5H121.5L120.75 20.4H123.15L120.45 34.65H125.55L128.25 20.4H131.7L132.45 16.65ZM144.6 16.65C144.6 16.65 141.45 24.6 139.95 28.95C139.8 27.6 138.75 16.65 138.75 16.65H133.35L136.35 33.15C136.35 33.45 136.35 33.75 136.2 34.05C135.6 35.25 134.55 36.3 133.5 37.05C132.6 37.8 131.4 38.25 130.65 38.55L132 42.9C133.05 42.75 135.15 41.85 136.95 40.2C139.2 38.1 141.45 34.65 143.55 30.15L149.7 16.8L144.6 16.65Z" fill="white"/>
</svg>
