<svg width="125" height="36" viewBox="0 0 125 36" fill="none" xmlns="http://www.w3.org/2000/svg">
<path d="M14.125 1.25C14.375 1.25 14.5 1.375 14.75 1.5C13.25 2.125 11.75 3.75 11 7.25L8.25 8C9.125 5.5 10.875 1.25 14.125 1.25ZM15.5 2.5C15.75 3.25 16 4.125 16 5.5C16 5.625 16 5.625 16 5.75L12.375 6.75C13.125 4.125 14.375 3 15.5 2.5ZM18.75 4.75L17.125 5.25C17.125 5.125 17.125 5 17.125 4.875C17.125 3.75 17 2.875 16.75 2.125C17.625 2.375 18.375 3.5 18.75 4.75ZM26.875 6.75C26.875 6.625 26.75 6.5 26.625 6.5C26.375 6.5 23.75 6.25 23.75 6.25C23.75 6.25 21.875 4.375 21.625 4.25C21.375 4 21 4.125 20.875 4.125C20.875 4.125 20.5 4.25 19.875 4.5C19.25 2.75 18.125 1.125 16.25 1.125H16.125C15.625 0.375001 14.875 0.125001 14.25 0.125001C9.75 5.88596e-07 7.625 5.625 6.875 8.5C5.875 8.75 4.875 9.125 3.75 9.5C2.75 9.75 2.75 9.875 2.625 10.75C2.5 11.375 0 31.125 0 31.125L19.875 34.875L30.625 32.5C30.625 32.5 26.875 7 26.875 6.75Z" fill="#8DB849"/>
<path d="M26.5 6.5C26.375 6.5 23.75 6.25 23.75 6.25C23.75 6.25 21.875 4.375 21.625 4.25C21.5 4.125 21.5 4.125 21.375 4.125L19.875 34.875L30.625 32.5C30.625 32.5 26.875 7 26.875 6.75C26.875 6.625 26.625 6.5 26.5 6.5Z" fill="#5A863E"/>
<path d="M16.25 12.5L14.875 16.5C14.875 16.5 13.75 15.875 12.25 15.875C10.125 15.875 10 17.125 10 17.5C10 19.25 14.75 20 14.75 24.25C14.75 27.625 12.625 29.75 9.75 29.75C6.375 29.75 4.625 27.625 4.625 27.625L5.5 24.625C5.5 24.625 7.25 26.125 8.75 26.125C9.75 26.125 10.125 25.375 10.125 24.75C10.125 22.375 6.25 22.25 6.25 18.375C6.25 15.125 8.625 12 13.25 12C15.375 11.875 16.25 12.5 16.25 12.5Z" fill="#FFFFFE"/>
<path d="M43.25 19.875C42.125 19.25 41.625 18.75 41.625 18.125C41.625 17.25 42.375 16.75 43.625 16.75C45 16.75 46.25 17.375 46.25 17.375L47.25 14.375C47.25 14.375 46.375 13.625 43.75 13.625C40 13.625 37.5 15.75 37.5 18.75C37.5 20.5 38.75 21.75 40.25 22.625C41.5 23.375 42 23.875 42 24.625C42 25.375 41.375 26.125 40.125 26.125C38.375 26.125 36.625 25.25 36.625 25.25L35.625 28.25C35.625 28.25 37.125 29.25 39.75 29.25C43.5 29.25 46.25 27.375 46.25 24C46.25 22.125 44.875 20.75 43.25 19.875ZM58.375 13.5C56.5 13.5 55 14.375 53.875 15.75L55.5 7.25H51.25L47.125 28.875H51.375L52.75 21.5C53.25 18.75 54.75 17 56.125 17C57.125 17 57.5 17.625 57.5 18.625C57.5 19.25 57.5 19.875 57.375 20.5L55.75 29H60L61.625 20.25C61.75 19.375 61.875 18.25 61.875 17.5C61.875 15 60.625 13.5 58.375 13.5ZM69.25 25.875C67.75 25.875 67.25 24.625 67.25 23.125C67.25 20.75 68.5 16.75 70.75 16.75C72.25 16.75 72.75 18 72.75 19.25C72.75 22 71.5 25.875 69.25 25.875ZM71.375 13.5C66.25 13.5 62.875 18.125 62.875 23.25C62.875 26.5 64.875 29.125 68.75 29.125C73.75 29.125 77.125 24.625 77.125 19.375C77.125 16.375 75.375 13.5 71.375 13.5ZM83.875 26C82.75 26 82.125 25.375 82.125 25.375L82.875 21.375C83.375 18.75 84.75 17 86.25 17C87.5 17 88 18.25 88 19.375C87.875 22.125 86.25 26 83.875 26ZM88 13.5C85.125 13.5 83.5 16 83.5 16L83.75 13.75H80C79.875 15.25 79.5 17.625 79.125 19.375L76.125 34.875H80.375L81.5 28.625H81.625C81.625 28.625 82.5 29.125 84.125 29.125C89.125 29.125 92.375 24 92.375 18.875C92.375 16.125 91.125 13.5 88 13.5ZM98.375 7.5C97 7.5 96 8.625 96 10C96 11.25 96.75 12.125 98 12.125C99.375 12.125 100.5 11.25 100.5 9.625C100.5 8.375 99.625 7.5 98.375 7.5ZM92.5 28.875H96.75L99.625 13.875H95.375L92.5 28.875ZM110.375 13.875H107.375L107.5 13.125C107.75 11.625 108.625 10.375 110 10.375C110.75 10.375 111.375 10.625 111.375 10.625L112.25 7.25C112.25 7.25 111.5 6.875 110 6.875C108.5 6.875 107 7.25 105.875 8.25C104.375 9.5 103.75 11.25 103.375 13L103.25 13.75H101.25L100.625 17H102.625L100.375 28.875H104.625L106.875 17H109.75L110.375 13.875ZM120.5 13.875C120.5 13.875 117.875 20.5 116.625 24.125C116.5 23 115.625 13.875 115.625 13.875H111.125L113.625 27.625C113.625 27.875 113.625 28.125 113.5 28.375C113 29.375 112.125 30.25 111.25 30.875C110.5 31.5 109.5 31.875 108.875 32.125L110 35.75C110.875 35.625 112.625 34.875 114.125 33.5C116 31.75 117.875 28.875 119.625 25.125L124.75 14L120.5 13.875Z" fill="#1A1919"/>
</svg>
